<?xml version="1.0" encoding="utf-8"?>
<!-- Generator: Adobe Illustrator 27.3.1, SVG Export Plug-In . SVG Version: 6.00 Build 0)  -->
<svg version="1.1" id="Layer_1" xmlns="http://www.w3.org/2000/svg" xmlns:xlink="http://www.w3.org/1999/xlink" x="0px" y="0px"
	 viewBox="0 0 1036.52 1036.52" style="enable-background:new 0 0 1036.52 1036.52;" xml:space="preserve">
<style type="text/css">
	.st0{fill:#14DE9E;}
	.st1{opacity:0.8;}
</style>
<g>
	<g>
		<path class="st0" d="M798.1,340.77v402.64c0,65.77-55.55,119.12-124.11,119.12H254.24c-10.13,0-19.88,3.84-27.06,10.71
			L67.12,1025.81c-7.21,6.86-16.93,10.71-27.06,10.71c-10.6,0-20.21-4.13-27.17-10.79c-6.93-6.68-11.24-15.87-11.24-26.05V791.45
			c0-1.25-0.08-2.46-0.19-3.71c-0.25-2.46-0.36-4.96-0.36-7.5V340.77c0-65.77,55.58-119.12,124.14-119.12h548.75
			C742.55,221.65,798.1,274.99,798.1,340.77z"/>
	</g>
	<g class="st1">
		<path class="st0" d="M1035.42,82.28V558.6c0,45.44-38.38,82.28-85.73,82.28H798.11v-300.1c0-65.79-55.58-119.13-124.13-119.13
			H238.41V82.28C238.41,36.84,276.79,0,324.13,0h625.56C997.04,0,1035.42,36.84,1035.42,82.28z"/>
	</g>
</g>
</svg>
